<svg width="73" height="55" viewBox="0 0 73 55" fill="none" xmlns="http://www.w3.org/2000/svg">
<path d="M11.68 24.3418C11.2123 23.1924 10.95 21.9355 10.95 20.625C10.95 14.9316 15.8547 10.3125 21.9 10.3125C24.147 10.3125 26.2458 10.957 27.9795 12.0527C31.1391 6.89648 37.0361 3.4375 43.8 3.4375C53.8831 3.4375 62.05 11.1289 62.05 20.625C62.05 20.915 62.0386 21.2051 62.0272 21.4951C68.4147 23.6113 73 29.3477 73 36.0938C73 44.6338 65.643 51.5625 56.575 51.5625H14.6C6.53578 51.5625 -1.90735e-06 45.4072 -1.90735e-06 37.8125C-1.90735e-06 31.1631 5.01875 25.6094 11.68 24.3418Z" fill="#699EEC"/>
<path d="M25.2553 43.4308C27.4282 43.4308 29.2247 42.0107 29.2247 40.026V38.6915L25.358 38.931C23.4931 39.0679 22.4323 39.9063 22.4323 41.2066C22.4323 42.5753 23.5615 43.4308 25.2553 43.4308ZM23.6128 47.0409C20.1225 47.0409 17.4706 44.7824 17.4706 41.4803C17.4706 38.144 20.037 36.2106 24.6052 35.9369L29.2247 35.6631V34.4484C29.2247 32.7374 28.0271 31.7451 26.145 31.7451C24.2801 31.7451 23.0996 32.669 22.86 34.0206H18.2918C18.48 30.4619 21.5084 28.0152 26.3674 28.0152C31.0725 28.0152 34.1351 30.4448 34.1351 34.1404V46.75H29.3103V43.9441H29.2076C28.181 45.8945 25.9055 47.0409 23.6128 47.0409ZM36.668 46.75V28.4088H41.4928V31.728H41.5955C42.3654 29.5209 44.333 28.0666 46.8309 28.0666C49.4829 28.0666 51.3307 29.4353 51.9466 31.8306H52.0493C52.8706 29.5209 55.0606 28.0666 57.7467 28.0666C61.3397 28.0666 63.7521 30.5303 63.7521 34.2259V46.75H58.7562V35.4749C58.7562 33.3534 57.6954 32.1899 55.762 32.1899C53.8629 32.1899 52.6139 33.5758 52.6139 35.6118V46.75H47.8062V35.3209C47.8062 33.3534 46.6941 32.1899 44.8463 32.1899C42.9471 32.1899 41.6639 33.6271 41.6639 35.6802V46.75H36.668Z" fill="white"/>
</svg>
